<svg xmlns="http://www.w3.org/2000/svg" xmlns:xlink="http://www.w3.org/1999/xlink" width="1007" height="703" viewBox="0 0 1007 703">
  <defs>
    <filter id="Rectangle_121" x="0" y="0" width="1007" height="703" filterUnits="userSpaceOnUse">
      <feOffset input="SourceAlpha"/>
      <feGaussianBlur stdDeviation="19" result="blur"/>
      <feFlood flood-opacity="0.161"/>
      <feComposite operator="in" in2="blur"/>
      <feComposite in="SourceGraphic"/>
    </filter>
  </defs>
  <g id="Component_6_1" data-name="Component 6 – 1" transform="translate(57 57)">
    <g transform="matrix(1, 0, 0, 1, -57, -57)" filter="url(#Rectangle_121)">
      <rect id="Rectangle_121-2" data-name="Rectangle 121" width="893" height="589" rx="15" transform="translate(57 57)" fill="#fff"/>
    </g>
    <circle id="Ellipse_25" data-name="Ellipse 25" cx="8" cy="8" r="8" transform="translate(22 19)" fill="#fd9595"/>
    <circle id="Ellipse_26" data-name="Ellipse 26" cx="8" cy="8" r="8" transform="translate(48 19)" fill="#ffdaa7"/>
    <circle id="Ellipse_27" data-name="Ellipse 27" cx="8" cy="8" r="8" transform="translate(74 19)" fill="#d2f7a0"/>
    <line id="Line_7" data-name="Line 7" x2="893" transform="translate(0.5 51.5)" fill="none" stroke="#e5e5e5" stroke-width="1"/>
    <rect id="Rectangle_122" data-name="Rectangle 122" width="893" height="82" transform="translate(0 52)" fill="#f4faff"/>
    <g id="Component_4_3" data-name="Component 4 – 3" transform="translate(22 81)">
      <g id="Group_18" data-name="Group 18" transform="translate(44)">
        <text id="algoritme" transform="translate(0 18)" font-size="17" font-family="NotoSans-Bold, Noto Sans" font-weight="700"><tspan x="0" y="0">algoritme</tspan></text>
      </g>
      <g id="Group_25" data-name="Group 25" transform="translate(130)">
        <text id="register" transform="translate(0 18)" font-size="17" font-family="NotoSans, Noto Sans"><tspan x="0" y="0">register</tspan></text>
      </g>
      <path id="Polygon_11" data-name="Polygon 11" d="M18.971.617a2,2,0,0,1,2.058,0l16.113,9.668a2,2,0,0,1,0,3.43L21.029,23.383a2,2,0,0,1-2.058,0L2.858,13.715a2,2,0,0,1,0-3.43Z" transform="translate(0 1)" fill="#4d80e2"/>
      <rect id="Rectangle_53" data-name="Rectangle 53" width="10" height="2" rx="1" transform="translate(14 16)" fill="#fff"/>
      <rect id="Rectangle_62" data-name="Rectangle 62" width="7" height="2" rx="1" transform="translate(14 12)" fill="#fff"/>
      <rect id="Rectangle_61" data-name="Rectangle 61" width="12" height="2" rx="1" transform="translate(14 8)" fill="#fff"/>
    </g>
    <g id="Group_30" data-name="Group 30" transform="translate(-44 -46)">
      <rect id="Rectangle_65" data-name="Rectangle 65" width="569" height="35" transform="translate(310 122)" fill="#fff"/>
    </g>
    <rect id="Rectangle_123" data-name="Rectangle 123" width="34" height="35" transform="translate(801 76)" fill="#4d80e2"/>
    <path id="Icon_ionic-ios-search" data-name="Icon ionic-ios-search" d="M22.008,20.931l-4.927-4.973a7.022,7.022,0,1,0-1.066,1.08l4.895,4.941a.758.758,0,0,0,1.07.028A.763.763,0,0,0,22.008,20.931ZM11.563,17.1a5.544,5.544,0,1,1,3.921-1.624A5.51,5.51,0,0,1,11.563,17.1Z" transform="translate(804.642 80.147)" fill="#fff"/>
    <text id="naam" transform="translate(74 181)" fill="#33579b" font-size="12" font-family="NotoSans-Bold, Noto Sans" font-weight="700"><tspan x="0" y="13">NAAM</tspan></text>
    <text id="afdeling" transform="translate(291 181)" fill="#33579b" font-size="12" font-family="NotoSans-Bold, Noto Sans" font-weight="700"><tspan x="0" y="13">AFDELING</tspan></text>
    <text id="herziening" transform="translate(469 181)" fill="#33579b" font-size="12" font-family="NotoSans-Bold, Noto Sans" font-weight="700"><tspan x="0" y="13">HERZIENING</tspan></text>
    <text id="type" transform="translate(614 181)" fill="#33579b" font-size="12" font-family="NotoSans-Bold, Noto Sans" font-weight="700"><tspan x="0" y="13">TYPE</tspan></text>
    <text id="categorie" transform="translate(721 181)" fill="#33579b" font-size="12" font-family="NotoSans-Bold, Noto Sans" font-weight="700"><tspan x="0" y="13">CATEGORIE</tspan></text>
    <rect id="Rectangle_124" data-name="Rectangle 124" width="737" height="49" transform="translate(64 219)" fill="#f4faff"/>
    <rect id="Rectangle_125" data-name="Rectangle 125" width="737" height="49" transform="translate(64 324)" fill="#f4faff"/>
    <rect id="Rectangle_126" data-name="Rectangle 126" width="737" height="49" transform="translate(56 429)" fill="#f4faff"/>
    <path id="Icon_awesome-chevron-down" data-name="Icon awesome-chevron-down" d="M4.828,14.359.552,10.083a.528.528,0,0,1,0-.747l.5-.5a.528.528,0,0,1,.746,0l3.4,3.389,3.4-3.389a.528.528,0,0,1,.746,0l.5.5a.528.528,0,0,1,0,.747L5.575,14.359A.528.528,0,0,1,4.828,14.359Z" transform="translate(118.602 178.901)"/>
    <rect id="Rectangle_127" data-name="Rectangle 127" width="111" height="7" rx="3" transform="translate(74 240)" fill="#33579b" opacity="0.249"/>
    <rect id="Rectangle_128" data-name="Rectangle 128" width="140" height="7" rx="3" transform="translate(74 292)" fill="#33579b" opacity="0.249"/>
    <rect id="Rectangle_129" data-name="Rectangle 129" width="104" height="7" rx="3" transform="translate(74 344)" fill="#33579b" opacity="0.249"/>
    <rect id="Rectangle_130" data-name="Rectangle 130" width="140" height="7" rx="3" transform="translate(74 396)" fill="#33579b" opacity="0.249"/>
    <rect id="Rectangle_131" data-name="Rectangle 131" width="91" height="7" rx="3" transform="translate(74 448)" fill="#33579b" opacity="0.249"/>
    <rect id="Rectangle_132" data-name="Rectangle 132" width="119" height="7" rx="3" transform="translate(74 504)" fill="#33579b" opacity="0.249"/>
    <rect id="Rectangle_139" data-name="Rectangle 139" width="134" height="7" rx="3" transform="translate(291 240)" fill="#33579b" opacity="0.249"/>
    <rect id="Rectangle_140" data-name="Rectangle 140" width="134" height="7" rx="3" transform="translate(291 292)" fill="#33579b" opacity="0.249"/>
    <rect id="Rectangle_141" data-name="Rectangle 141" width="134" height="7" rx="3" transform="translate(291 344)" fill="#33579b" opacity="0.249"/>
    <rect id="Rectangle_142" data-name="Rectangle 142" width="134" height="7" rx="3" transform="translate(291 396)" fill="#33579b" opacity="0.249"/>
    <rect id="Rectangle_143" data-name="Rectangle 143" width="134" height="7" rx="3" transform="translate(291 448)" fill="#33579b" opacity="0.249"/>
    <rect id="Rectangle_144" data-name="Rectangle 144" width="134" height="7" rx="3" transform="translate(291 504)" fill="#33579b" opacity="0.249"/>
    <rect id="Rectangle_145" data-name="Rectangle 145" width="19" height="7" rx="3" transform="translate(471 240)" fill="#33579b" opacity="0.249"/>
    <rect id="Rectangle_146" data-name="Rectangle 146" width="19" height="7" rx="3" transform="translate(471 292)" fill="#33579b" opacity="0.249"/>
    <rect id="Rectangle_147" data-name="Rectangle 147" width="19" height="7" rx="3" transform="translate(471 344)" fill="#33579b" opacity="0.249"/>
    <rect id="Rectangle_148" data-name="Rectangle 148" width="19" height="7" rx="3" transform="translate(471 396)" fill="#33579b" opacity="0.249"/>
    <rect id="Rectangle_149" data-name="Rectangle 149" width="19" height="7" rx="3" transform="translate(471 448)" fill="#33579b" opacity="0.249"/>
    <rect id="Rectangle_150" data-name="Rectangle 150" width="19" height="7" rx="3" transform="translate(471 504)" fill="#33579b" opacity="0.249"/>
    <rect id="Rectangle_151" data-name="Rectangle 151" width="19" height="7" rx="3" transform="translate(499 240)" fill="#33579b" opacity="0.249"/>
    <rect id="Rectangle_152" data-name="Rectangle 152" width="19" height="7" rx="3" transform="translate(499 292)" fill="#33579b" opacity="0.249"/>
    <rect id="Rectangle_153" data-name="Rectangle 153" width="19" height="7" rx="3" transform="translate(499 344)" fill="#33579b" opacity="0.249"/>
    <rect id="Rectangle_154" data-name="Rectangle 154" width="19" height="7" rx="3" transform="translate(499 396)" fill="#33579b" opacity="0.249"/>
    <rect id="Rectangle_155" data-name="Rectangle 155" width="19" height="7" rx="3" transform="translate(499 448)" fill="#33579b" opacity="0.249"/>
    <rect id="Rectangle_156" data-name="Rectangle 156" width="19" height="7" rx="3" transform="translate(499 504)" fill="#33579b" opacity="0.249"/>
    <rect id="Rectangle_157" data-name="Rectangle 157" width="14" height="14" rx="5" transform="translate(620 237)" fill="#ffcaa8"/>
    <rect id="Rectangle_158" data-name="Rectangle 158" width="14" height="14" rx="5" transform="translate(620 289)" fill="#33579b"/>
    <rect id="Rectangle_159" data-name="Rectangle 159" width="14" height="14" rx="5" transform="translate(620 341)" fill="#ffcaa8"/>
    <rect id="Rectangle_160" data-name="Rectangle 160" width="14" height="14" rx="5" transform="translate(620 393)" fill="#ffcaa8"/>
    <rect id="Rectangle_161" data-name="Rectangle 161" width="14" height="14" rx="5" transform="translate(620 445)" fill="#c8eb8f"/>
    <rect id="Rectangle_162" data-name="Rectangle 162" width="14" height="14" rx="5" transform="translate(620 501)" fill="#ffcaa8"/>
    <rect id="Rectangle_163" data-name="Rectangle 163" width="19" height="7" rx="3" transform="translate(721 240)" fill="#33579b" opacity="0.249"/>
    <rect id="Rectangle_164" data-name="Rectangle 164" width="19" height="7" rx="3" transform="translate(721 292)" fill="#33579b" opacity="0.249"/>
    <rect id="Rectangle_165" data-name="Rectangle 165" width="19" height="7" rx="3" transform="translate(721 344)" fill="#33579b" opacity="0.249"/>
    <rect id="Rectangle_166" data-name="Rectangle 166" width="19" height="7" rx="3" transform="translate(721 396)" fill="#33579b" opacity="0.249"/>
    <rect id="Rectangle_167" data-name="Rectangle 167" width="19" height="7" rx="3" transform="translate(721 448)" fill="#33579b" opacity="0.249"/>
    <rect id="Rectangle_168" data-name="Rectangle 168" width="19" height="7" rx="3" transform="translate(721 504)" fill="#33579b" opacity="0.249"/>
    <rect id="Rectangle_169" data-name="Rectangle 169" width="19" height="7" rx="3" transform="translate(749 240)" fill="#33579b" opacity="0.249"/>
    <rect id="Rectangle_170" data-name="Rectangle 170" width="19" height="7" rx="3" transform="translate(749 292)" fill="#33579b" opacity="0.249"/>
    <rect id="Rectangle_171" data-name="Rectangle 171" width="19" height="7" rx="3" transform="translate(749 344)" fill="#33579b" opacity="0.249"/>
    <rect id="Rectangle_172" data-name="Rectangle 172" width="19" height="7" rx="3" transform="translate(749 396)" fill="#33579b" opacity="0.249"/>
    <rect id="Rectangle_173" data-name="Rectangle 173" width="19" height="7" rx="3" transform="translate(749 448)" fill="#33579b" opacity="0.249"/>
    <rect id="Rectangle_174" data-name="Rectangle 174" width="19" height="7" rx="3" transform="translate(749 504)" fill="#33579b" opacity="0.249"/>
  </g>
</svg>
