<svg xmlns="http://www.w3.org/2000/svg" width="362.875" height="336.44" viewBox="0 0 362.875 336.44">
  <g id="undraw_date_picker_re_xijj" transform="translate(-71.251)">
    <path id="Path_70" data-name="Path 70" d="M569.095,180.33a8.394,8.394,0,0,1-8.545,8.243H520.906c-.144,0-.287-.007-.431-.018a7.82,7.82,0,0,1-1.1-.151V174.37a2.755,2.755,0,0,1,1.79-2.582h39.691A8.4,8.4,0,0,1,569.095,180.33Z" transform="translate(-348.844 -170.879)" fill="#e6e6e6"/>
    <path id="Path_71" data-name="Path 71" d="M777.613,170.3H521.947a4.418,4.418,0,0,0-1.611.3,4.565,4.565,0,0,0-2.966,4.277V453.729a4.578,4.578,0,0,0,4.576,4.576H777.613a4.578,4.578,0,0,0,4.576-4.576V174.875A4.578,4.578,0,0,0,777.613,170.3Zm2.746,283.43a2.75,2.75,0,0,1-2.746,2.746H521.947a2.75,2.75,0,0,1-2.746-2.746V174.875a2.75,2.75,0,0,1,2.746-2.746H777.613a2.75,2.75,0,0,1,2.746,2.746Z" transform="translate(-348.064 -170.299)" fill="#e6e6e6"/>
    <circle id="Ellipse_13" data-name="Ellipse 13" cx="6.006" cy="6.006" r="6.006" transform="translate(287.849 83.8)" fill="#6c63ff"/>
    <circle id="Ellipse_14" data-name="Ellipse 14" cx="6.006" cy="6.006" r="6.006" transform="translate(312.875 83.8)" fill="#6c63ff"/>
    <circle id="Ellipse_15" data-name="Ellipse 15" cx="6.006" cy="6.006" r="6.006" transform="translate(237.799 133.432)" fill="#6c63ff"/>
    <circle id="Ellipse_16" data-name="Ellipse 16" cx="6.006" cy="6.006" r="6.006" transform="translate(262.824 133.432)" fill="#6c63ff"/>
    <circle id="Ellipse_17" data-name="Ellipse 17" cx="6.006" cy="6.006" r="6.006" transform="translate(287.849 158.247)" fill="#6c63ff"/>
    <circle id="Ellipse_18" data-name="Ellipse 18" cx="6.006" cy="6.006" r="6.006" transform="translate(312.875 158.247)" fill="#6c63ff"/>
    <circle id="Ellipse_19" data-name="Ellipse 19" cx="6.006" cy="6.006" r="6.006" transform="translate(337.9 158.247)" fill="#6c63ff"/>
    <path id="Path_72" data-name="Path 72" d="M553.545,177.437a.714.714,0,0,0,0,1.01h0l3.065,3.065h-7.558a.714.714,0,0,0,0,1.428h7.558L553.545,186a.714.714,0,0,0,1.01,1.01h0l4.284-4.284a.714.714,0,0,0,0-1.01l-4.284-4.284A.714.714,0,0,0,553.545,177.437Z" transform="translate(-360.136 -173)" fill="#fff"/>
    <path id="Path_73" data-name="Path 73" d="M749.768,337.7H588.5c-.624,0-1.13-.273-1.13-.61s.506-.61,1.13-.61H749.768c.624,0,1.13.273,1.13.61S750.392,337.7,749.768,337.7Z" transform="translate(-375.351 -235.078)" fill="#e6e6e6"/>
    <path id="Path_74" data-name="Path 74" d="M749.768,293.519H588.5c-.624,0-1.13-.273-1.13-.61s.506-.61,1.13-.61H749.768c.624,0,1.13.273,1.13.61S750.392,293.519,749.768,293.519Z" transform="translate(-375.351 -217.856)" fill="#e6e6e6"/>
    <path id="Path_75" data-name="Path 75" d="M750.381,378.96H588.218a.61.61,0,0,1,0-1.22H750.381a.61.61,0,1,1,0,1.22Z" transform="translate(-375.444 -251.162)" fill="#e6e6e6"/>
    <path id="Path_76" data-name="Path 76" d="M750.381,418.96H588.218a.61.61,0,0,1,0-1.22H750.381a.61.61,0,1,1,0,1.22Z" transform="translate(-375.444 -266.755)" fill="#e6e6e6"/>
    <path id="Path_77" data-name="Path 77" d="M750.381,459.96H588.218a.61.61,0,1,1,0-1.22H750.381a.61.61,0,1,1,0,1.22Z" transform="translate(-375.444 -282.738)" fill="#e6e6e6"/>
    <path id="Path_78" data-name="Path 78" d="M823.37,394.211V293.677c0-.209.273-.378.61-.378s.61.169.61.378V394.211c0,.209-.273.378-.61.378S823.37,394.42,823.37,394.211Z" transform="translate(-467.348 -218.246)" fill="#e6e6e6"/>
    <path id="Path_79" data-name="Path 79" d="M782.37,394.211V293.677c0-.209.273-.378.61-.378s.61.169.61.378V394.211c0,.209-.273.378-.61.378S782.37,394.42,782.37,394.211Z" transform="translate(-451.366 -218.246)" fill="#e6e6e6"/>
    <path id="Path_80" data-name="Path 80" d="M741.37,394.211V293.677c0-.209.273-.378.61-.378s.61.169.61.378V394.211c0,.209-.273.378-.61.378S741.37,394.42,741.37,394.211Z" transform="translate(-435.383 -218.246)" fill="#e6e6e6"/>
    <path id="Path_81" data-name="Path 81" d="M701.37,394.211V293.677c0-.209.273-.378.61-.378s.61.169.61.378V394.211c0,.209-.273.378-.61.378S701.37,394.42,701.37,394.211Z" transform="translate(-419.79 -218.246)" fill="#e6e6e6"/>
    <path id="Path_82" data-name="Path 82" d="M659.37,419.743V293.773a.63.63,0,0,1,1.22,0v125.97a.63.63,0,0,1-1.22,0Z" transform="translate(-403.418 -218.246)" fill="#e6e6e6"/>
    <path id="Path_83" data-name="Path 83" d="M617.37,419.743V293.773a.63.63,0,0,1,1.22,0v125.97a.63.63,0,0,1-1.22,0Z" transform="translate(-387.046 -218.246)" fill="#e6e6e6"/>
    <path id="Path_84" data-name="Path 84" d="M588.217,500.788a.61.61,0,1,1,0-1.22l62.094-.269a.626.626,0,0,1,.613.608.61.61,0,0,1-.607.613l-62.094.269Z" transform="translate(-375.443 -298.548)" fill="#e6e6e6"/>
    <path id="Path_85" data-name="Path 85" d="M662.617,249.628a.61.61,0,0,1,0-1.22l87.089-.109h0a.61.61,0,0,1,0,1.22l-87.089.109Z" transform="translate(-404.446 -200.704)" fill="#e6e6e6"/>
    <path id="Path_86" data-name="Path 86" d="M703.525,560.881a12.225,12.225,0,1,1,12.225-12.225A12.225,12.225,0,0,1,703.525,560.881Z" transform="translate(-415.865 -313.023)" fill="#e6e6e6"/>
    <path id="Path_87" data-name="Path 87" d="M712.306,551.408h-3.618V547.79a1.206,1.206,0,0,0-2.412,0v3.618h-3.618a1.206,1.206,0,0,0,0,2.412h3.618v3.618a1.206,1.206,0,0,0,2.412,0V553.82h3.618a1.206,1.206,0,0,0,0-2.412Z" transform="translate(-419.823 -316.981)" fill="#fff"/>
    <path id="Path_88" data-name="Path 88" d="M749.525,560.881a12.225,12.225,0,1,1,12.225-12.225,12.225,12.225,0,0,1-12.225,12.225Z" transform="translate(-433.796 -313.023)" fill="#e6e6e6"/>
    <path id="Path_89" data-name="Path 89" d="M759.439,557.4l-3.185-3.728a5.172,5.172,0,1,0-1.308,1.287l3.1,3.63a.915.915,0,0,0,1.392-1.189Zm-10.764-6.728a3.356,3.356,0,1,1,3.356,3.356A3.356,3.356,0,0,1,748.675,550.672Z" transform="translate(-437.523 -316.564)" fill="#fff"/>
    <path id="Path_90" data-name="Path 90" d="M662.617,577.628a.61.61,0,0,1,0-1.22l87.089-.109h0a.61.61,0,0,1,0,1.22l-87.089.109Z" transform="translate(-404.446 -328.564)" fill="#e6e6e6"/>
    <path id="Path_91" data-name="Path 91" d="M231.73,519.831h7.784l3.7-30.023H231.729Z" transform="translate(-85.007 -190.935)" fill="#ffb6b6"/>
    <path id="Path_92" data-name="Path 92" d="M477.112,702.922v10.086h25.1v-.317a9.77,9.77,0,0,0-9.767-9.769l-4.59-3.478-.238.1-8.311,3.38Z" transform="translate(-332.371 -376.568)" fill="#2f2e41"/>
    <path id="Path_93" data-name="Path 93" d="M116.468,505.261l6.966,3.472,16.707-25.218L129.86,478.39Z" transform="translate(-40.076 -186.484)" fill="#ffb6b6"/>
    <path id="Path_94" data-name="Path 94" d="M356.672,696.575l22.461,11.191.14-.281a9.764,9.764,0,0,0-4.381-13.1l-2.557-5.156-.268-.018-8.933-.69-.183-.092-1.782-.885Z" transform="translate(-285.421 -371.93)" fill="#2f2e41"/>
    <path id="Path_95" data-name="Path 95" d="M443.765,444.844l-42.921,1.5-.3-.435s-3.661,8.543-3.661,15.865c0,2.435,1.693,18.357.832,21.37-.107.375.629,1.293.388,3.037-.157,1.132-1.022.261-1.22,1.831-.143,1.126,1.38,1.748,1.22,3.051-.174,1.423-2.268,6.034-2.456,7.617-2.007,16.857-4.678,41.278-4.678,41.278s-10.731,28.742-13,29.209c-3.81.784-6.383,7.712-4.271,9.153,1.005.686,14,5.3,14,5.3.714.129,2.948-.991,1.525-3.641-.262-.488,1.3.754,1.56.17.276-.621-.266-3.092.05-3.781,2.84-6.189,7.2-14.766,11.332-19.171A41.86,41.86,0,0,0,413.2,533.547l9.478-52.552,3.248,14.737,2.688,2.656-.737,6.193.127,6.011,6.712,25.018s1.007,46.721-.61,48.2c-.876.8-4.591,10.7,2.441,11.593l12.776-.986s1.721-3.628.861-4.919-.809-.939.241-3.052.62-5.693.62-5.693a421.761,421.761,0,0,0,1.977-50.641c-.64-27.765-4.522-59.662-4.522-60.312a4.293,4.293,0,0,1,.358-1.936v-1.752l-1.649-6.21Z" transform="translate(-291.762 -277.321)" fill="#2f2e41"/>
    <path id="Path_96" data-name="Path 96" d="M397.52,446.233a4.874,4.874,0,0,1,2.522-7.036l-.308-30.839,7.607,4.812-.874,29.229a4.9,4.9,0,0,1-8.946,3.834Z" transform="translate(-301.084 -263.098)" fill="#ffb8b8"/>
    <path id="Path_97" data-name="Path 97" d="M399.412,397.016l.647-.031.077,0,2.4-.008,3.946-.008.286,0,.129.025,1.347.234.056-.361,2.626-5.015,2.019-2.777L412.2,385.8l-1.449-1.8,2.46-2.981.311-1.472,2.059-9.684,6.826-32.119v-.019l.143-.681,2.22-10.434-.684-2.624-.762-2.881a7.874,7.874,0,0,0-3.183-4.485,7.774,7.774,0,0,0-2.216-1.035,7.613,7.613,0,0,0-3.1-.255l-.012,0a7.854,7.854,0,0,0-1.729.418l-.222.087a7.9,7.9,0,0,0-.9.434,7.779,7.779,0,0,0-3.716,4.722l-7.232,8.056-1.272,4.559-.409,1.464-1.311,7.8.02,30.712-.233,1.391-.332,7.71,1.3,1.767-1.465,2.143-.05,1.176-.01.3,1.957,1.987.125,4.286Z" transform="translate(-301.24 -226.809)" fill="#3f3d56"/>
    <path id="Path_98" data-name="Path 98" d="M412.37,395.773c10.837,1.874,18.1,1.161,22.577-5.492,5.835-7.429,16.445,1.343,25.4,4.6l1.062-1.147,1.806-1.946-1.66-1.879,1.66-3.624-1.385-4.473-1.77-.323.476-3.85.744-2.252-2.184-2.4-1.855-5.986,1.336-12.527a83.449,83.449,0,0,0-10.141-49.559l-5.071-4.552-2.105-1.892-2.825-5.272-2.984.348-8.079.934-.275.659-1.983,4.784-7.2,7.739a10.534,10.534,0,0,0-2.772,8.218h0l.207,2.087.153,1.5.72,7.225,2.935,29.515.22,1.568,2.361,16.969c-3.838,3.71-4.072,2.9-5.7,9.429-.183.726-2.306,2.343-2.441,3.051C413.4,388.231,412.37,395.773,412.37,395.773Z" transform="translate(-307.133 -218.21)" fill="#3f3d56"/>
    <circle id="Ellipse_20" data-name="Ellipse 20" cx="14.032" cy="14.032" r="14.032" transform="translate(113.209 43.822)" fill="#ffb6b6"/>
    <path id="Path_99" data-name="Path 99" d="M422.611,242.473a7.235,7.235,0,0,1,7.447-2,9.465,9.465,0,0,1,16.619-2.4,2.943,2.943,0,0,1,2.881.265,6.068,6.068,0,0,1,1.939,2.287,13.62,13.62,0,0,1-.765,13.966c.549-1.109-.995.8-2.5.3-1.293-.339-6.6-3.743-7.927-3.571s-1.755-.9-3.051-1.22c-1.27-.406-4.51,4.842-5.16,8.315-.123.658-.422,1.476-1.091,1.491-.824.018-1.071-1.162-1.766-1.605a1.419,1.419,0,0,0-1.884.577,2.313,2.313,0,0,0,.04,2.118,6.835,6.835,0,0,0,1.353,1.727l-.36.2a1.879,1.879,0,0,1-2.385-.162c-1.34.6-4.985-2.805-4.5-4.868a22.824,22.824,0,0,1-1.643-7.944A10.9,10.9,0,0,1,422.611,242.473Z" transform="translate(-310.05 -195.182)" fill="#2f2e41"/>
    <path id="Path_100" data-name="Path 100" d="M569.786,374.064a4.874,4.874,0,0,1-6.3-4.023l-30.136-6.555,6.383-6.347,28.3,7.35a4.9,4.9,0,0,1,1.749,9.575Z" transform="translate(-354.294 -243.132)" fill="#ffb8b8"/>
    <path id="Path_101" data-name="Path 101" d="M454.763,313.458a7.861,7.861,0,0,0-4.762,1.83,7.623,7.623,0,0,0-1.822,2.209,7.739,7.739,0,0,0-.933,2.969v.006a7.814,7.814,0,0,0,4.059,7.665l9.928,5.38,1.257.68c8.459,8.621,22.722,13.128,39.13,16.118l9.433,2.581,3.171-1.177.768,3.015,3.158.1,1.717-.357,3.593-1.409.686-1.38v-.006l1.475-6.541.01-.043v-.006l.344-1.5-2.026-.938-1.762-2.354L519,340.37l-2.906.253-.851-1.992-36.83-17.042-7.626-3.532-.019-.011-.363-.171-9.948-4.6-2.708.086Z" transform="translate(-320.713 -226.032)" fill="#3f3d56"/>
    <circle id="Ellipse_21" data-name="Ellipse 21" cx="6.006" cy="6.006" r="6.006" transform="translate(208.526 126.513)" fill="#6c63ff"/>
    <path id="Path_104" data-name="Path 104" d="M738.456,233.611h-32.34a2.746,2.746,0,0,1,0-5.492h32.34a2.746,2.746,0,1,1,0,5.492Z" transform="translate(-420.57 -192.838)" fill="#e6e6e6"/>
  </g>
</svg>
