<svg id="undraw_annotation_re_h774" xmlns="http://www.w3.org/2000/svg" width="651.102" height="553.028" viewBox="0 0 651.102 553.028">
  <path id="Path_1" data-name="Path 1" d="M670.176,454.912H493.966A17.832,17.832,0,0,1,476.154,437.1V203.778a17.832,17.832,0,0,1,17.812-17.812h176.21a17.832,17.832,0,0,1,17.812,17.812V437.1A17.832,17.832,0,0,1,670.176,454.912Z" transform="translate(-249.127 -122.351)" fill="#484848"/>
  <path id="Path_2" data-name="Path 2" d="M661.244,443.632H509.807a15.833,15.833,0,0,1-15.815-15.815V220.192a15.833,15.833,0,0,1,15.815-15.815H661.244a15.833,15.833,0,0,1,15.815,15.815V427.817A15.833,15.833,0,0,1,661.244,443.632Z" transform="translate(-252.581 -125.917)" fill="#fff"/>
  <path id="Path_3" data-name="Path 3" d="M652.615,251.411H531.391a3.953,3.953,0,0,1,0-7.907H652.615a3.953,3.953,0,1,1,0,7.907Z" transform="translate(-259.059 -133.494)" fill="#e4e4e4"/>
  <path id="Path_4" data-name="Path 4" d="M652.615,270.786H531.391a3.954,3.954,0,0,1,0-7.907H652.615a3.954,3.954,0,0,1,0,7.907Z" transform="translate(-259.059 -137.247)" fill="#e4e4e4"/>
  <path id="Path_5" data-name="Path 5" d="M583.939,290.16H531.391a3.954,3.954,0,0,1,0-7.907h52.548a3.954,3.954,0,0,1,0,7.907Z" transform="translate(-259.059 -140.999)" fill="#e4e4e4"/>
  <path id="Path_6" data-name="Path 6" d="M652.615,330.738H531.391a3.954,3.954,0,0,1,0-7.907H652.615a3.954,3.954,0,1,1,0,7.907Z" transform="translate(-259.059 -148.857)" fill="#e4e4e4"/>
  <path id="Path_7" data-name="Path 7" d="M652.615,350.112H531.391a3.954,3.954,0,0,1,0-7.907H652.615a3.954,3.954,0,0,1,0,7.907Z" transform="translate(-259.059 -152.61)" fill="#e4e4e4"/>
  <path id="Path_8" data-name="Path 8" d="M583.939,369.487H531.391a3.954,3.954,0,0,1,0-7.907h52.548a3.954,3.954,0,0,1,0,7.907Z" transform="translate(-259.059 -156.362)" fill="#e4e4e4"/>
  <path id="Path_115" data-name="Path 115" d="M559.258,369.487H529.664c-1.23,0-2.227-1.77-2.227-3.954s1-3.954,2.227-3.954h29.594c1.23,0,2.227,1.77,2.227,3.954S560.487,369.487,559.258,369.487Z" transform="translate(-190.383 -156.362)" fill="#e4e4e4"/>
  <path id="Path_116" data-name="Path 116" d="M559.258,369.487H529.664c-1.23,0-2.227-1.77-2.227-3.954s1-3.954,2.227-3.954h29.594c1.23,0,2.227,1.77,2.227,3.954S560.487,369.487,559.258,369.487Z" transform="translate(-190.383 -220.325)" fill="#ffcaa8"/>
  <path id="Path_117" data-name="Path 117" d="M559.258,369.487H529.664c-1.23,0-2.227-1.77-2.227-3.954s1-3.954,2.227-3.954h29.594c1.23,0,2.227,1.77,2.227,3.954S560.487,369.487,559.258,369.487Z" transform="translate(-190.383 -92.398)" fill="#e4e4e4"/>
  <path id="Path_9" data-name="Path 9" d="M652.615,410.064H531.391a3.954,3.954,0,0,1,0-7.907H652.615a3.954,3.954,0,1,1,0,7.907Z" transform="translate(-259.059 -164.22)" fill="#e4e4e4"/>
  <path id="Path_10" data-name="Path 10" d="M652.615,429.439H531.391a3.954,3.954,0,0,1,0-7.907H652.615a3.954,3.954,0,0,1,0,7.907Z" transform="translate(-259.059 -167.973)" fill="#e4e4e4"/>
  <path id="Path_11" data-name="Path 11" d="M583.939,448.813H531.391a3.954,3.954,0,1,1,0-7.907h52.548a3.954,3.954,0,0,1,0,7.907Z" transform="translate(-259.059 -171.725)" fill="#c8eb8f"/>
  <path id="Path_12" data-name="Path 12" d="M316.723,216.759,185.02,104.107H96.539v-1.659h89.094L317.8,215.5Z" transform="translate(-18.697 -19.841)" fill="#2f2e41"/>
  <circle id="Ellipse_1" data-name="Ellipse 1" cx="13.277" cy="13.277" r="13.277" transform="translate(64.566 70.16)" fill="#4d80e2"/>
  <path id="Path_13" data-name="Path 13" d="M319.776,264.033H198.552a3.954,3.954,0,1,1,0-7.907H319.776a3.954,3.954,0,0,1,0,7.907Z" transform="translate(-194.598 -135.939)" fill="#4d80e2"/>
  <path id="Path_14" data-name="Path 14" d="M319.776,283.407H198.552a3.954,3.954,0,1,1,0-7.907H319.776a3.954,3.954,0,1,1,0,7.907Z" transform="translate(-194.598 -139.691)" fill="#4d80e2"/>
  <path id="Path_15" data-name="Path 15" d="M251.1,302.782H198.552a3.954,3.954,0,1,1,0-7.907H251.1a3.954,3.954,0,0,1,0,7.907Z" transform="translate(-194.598 -143.443)" fill="#4d80e2"/>
  <path id="Path_16" data-name="Path 16" d="M412.912,128.486,545.081,15.436h89.094V17.1H545.694l-131.7,112.652Z" transform="translate(-79.968 -2.989)" fill="#2f2e41"/>
  <circle id="Ellipse_2" data-name="Ellipse 2" cx="13.277" cy="13.277" r="13.277" transform="translate(540.931 0)" fill="#4d80e2"/>
  <path id="Path_17" data-name="Path 17" d="M963.808,176.444H842.584a3.954,3.954,0,1,1,0-7.907H963.808a3.954,3.954,0,0,1,0,7.907Z" transform="translate(-319.327 -118.976)" fill="#4d80e2"/>
  <path id="Path_18" data-name="Path 18" d="M963.807,195.818H842.584a3.954,3.954,0,1,1,0-7.907H963.807a3.954,3.954,0,1,1,0,7.907Z" transform="translate(-319.327 -122.728)" fill="#4d80e2"/>
  <path id="Path_19" data-name="Path 19" d="M895.131,215.193H842.584a3.954,3.954,0,1,1,0-7.907h52.548a3.954,3.954,0,1,1,0,7.907Z" transform="translate(-319.327 -126.48)" fill="#4d80e2"/>
  <path id="Path_20" data-name="Path 20" d="M874.978,563.791a6.907,6.907,0,0,1,1.377-10.5L870.694,529.4l11.981,4.377,3.539,22.01a6.945,6.945,0,0,1-11.236,8Z" transform="translate(-325.537 -188.864)" fill="#9e616a"/>
  <path id="Path_21" data-name="Path 21" d="M840.275,437.033l4.808,12.364s-2.061,12.364,1.374,15.112,2.061,2.748,2.061,4.808a10.566,10.566,0,0,0,4.121,7.556c2.748,2.061,15.112,43.961,15.112,43.961h12.364a38.732,38.732,0,0,1,0-9.616c.687-4.808-2.061-17.172-3.435-19.233s0-4.808,0-8.93-2.748-6.182-2.748-13.051-8.243-60.447-7.556-66.629-6.869-11.677-6.869-11.677h-6.869Z" transform="translate(-319.645 -162.195)" fill="#e6e7e8"/>
  <path id="Path_22" data-name="Path 22" d="M606.853,372.5l-11.428,51,73.233-4.556-19.913-50.088Z" transform="translate(-115.315 -71.436)" fill="#9e616a"/>
  <path id="Path_25" data-name="Path 25" d="M979.183,722.5a14.528,14.528,0,0,0,18.3-4.367c.41-.564-.447-1.228-.857-.663a13.453,13.453,0,0,1-17.03,4.027C978.974,721.176,978.566,722.181,979.183,722.5Z" transform="translate(-346.488 -225.245)" fill="#fff"/>
  <path id="Path_26" data-name="Path 26" d="M950.626,742.686a28,28,0,0,1,.991-20.384c.286-.637-.717-1.047-1-.411a29.126,29.126,0,0,0-.989,21.213C949.85,743.766,950.849,743.344,950.626,742.686Z" transform="translate(-340.525 -226.081)" fill="#fff"/>
  <path id="Path_27" data-name="Path 27" d="M991.656,685.831a8.224,8.224,0,0,1-5.662-5.37c-.216-.664-1.215-.242-1,.418a9.215,9.215,0,0,0,6.251,5.954.56.56,0,0,0,.707-.3.544.544,0,0,0-.3-.707Z" transform="translate(-347.667 -218.054)" fill="#fff"/>
  <path id="Path_29" data-name="Path 29" d="M913.192,790.4h-1.274c-.4-.653-.839-1.29-1.274-1.919q-1.04-1.463-2.145-2.862c-.637-.806-1.274-1.6-1.911-2.4-.661-.831-1.314-1.661-1.951-2.516l.75-.823c.121.161.242.323.371.484,2.064,2.717,4.3,5.33,6.209,8.12C912.394,789.111,912.805,789.748,913.192,790.4Z" transform="translate(-332.11 -237.373)" fill="#fff"/>
  <path id="Path_31" data-name="Path 31" d="M919.4,701.112a14.528,14.528,0,0,0,11.982-14.5.542.542,0,0,0-1.084-.013,13.453,13.453,0,0,1-11.173,13.469C918.435,700.183,918.715,701.23,919.4,701.112Z" transform="translate(-334.839 -219.207)" fill="#fff"/>
  <path id="Path_32" data-name="Path 32" d="M908.623,736.609a28,28,0,0,1-11.481-16.872c-.155-.681-1.2-.4-1.048.275a29.127,29.127,0,0,0,11.982,17.532C908.654,737.938,909.2,737,908.623,736.609Z" transform="translate(-330.453 -225.65)" fill="#fff"/>
  <path id="Path_34" data-name="Path 34" d="M621.806,657.674h-8.227l-3.913-31.731h12.141Z" transform="translate(-118.073 -121.225)" fill="#9e616a"/>
  <path id="Path_35" data-name="Path 35" d="M817.961,786.826h-5.837l-1.042-5.511-2.669,5.511H792.931a3.48,3.48,0,0,1-1.978-6.344l12.363-8.539v-5.572l13,.776Z" transform="translate(-309.802 -234.757)" fill="#2f2e41"/>
  <path id="Path_36" data-name="Path 36" d="M716.682,652.771l-8.04,1.744L698.09,624.336l11.866-2.574Z" transform="translate(-135.198 -120.416)" fill="#9e616a"/>
  <path id="Path_37" data-name="Path 37" d="M918.327,780.523l-5.7,1.238-2.187-5.165L909,782.548l-15.13,3.282a3.48,3.48,0,0,1-3.278-5.781l10.272-10.966-1.181-5.445,12.873-2Z" transform="translate(-329.207 -233.841)" fill="#2f2e41"/>
  <path id="Path_39" data-name="Path 39" d="M786.984,580.921c5.773,31.729,7.217,45.429,7.217,45.429s-4.33,5.048-1.443,7.934,0,8.652,0,8.652l6.491,69.949,5.225-.847,12.587-2.024,4.54-.734-2.887-65.619s2.887-5.773,1.443-7.217,1.443-10.1,1.443-10.1l3.6-68.506,22.36,75s-2.169,2.887,0,5.048,6.483,12.982,6.483,12.982l13.3,46.525,1.129,3.951,6.934-1.3,7.547-1.419,1.387-.258,2.467-.468,1.588-.3.54-.1,2.613-.492-.79-3.508-.411-1.846L879.1,641.7l-.258-1.153-.274-1.218s1.443-3.6-.718-5.773a5.635,5.635,0,0,1-1.443-5.048,1.967,1.967,0,0,0,.193-.242,2.993,2.993,0,0,0,.516-1.177c.193-.9.024-2.169-1.435-3.628A6.154,6.154,0,0,1,874.656,622c-2.193-4.153-3.3-12.95-3.3-12.95s-1.951-69.675-8.337-80.319c-.339-.556-7.118-11.238-7.473-11.455-7.209-4.322-66.695,1.648-66.695,1.648s-3.4,9.138-3.555,10.09C784.468,534.355,782.09,554.005,786.984,580.921Z" transform="translate(-308.744 -186.21)" fill="#2f2e41"/>
  <path id="Path_40" data-name="Path 40" d="M785.22,563.68a6.907,6.907,0,0,0-1.377-10.5l5.661-23.884-11.981,4.377-3.539,22.01a6.945,6.945,0,0,0,11.236,8Z" transform="translate(-306.642 -188.843)" fill="#9e616a"/>
  <path id="Path_41" data-name="Path 41" d="M797.244,386.387s5.933-8.841,17.61-20.518c6.182-2.061,16.893-.86,20.607,0,17.172,22.667,18.253,21.161,22.723,33.826,1.159,3.284,1.739,6.44,1.224,9.016-2.061,10.3,1.242,62.362,1.929,65.11s5.5,6.182.687,6.182-77.619-2.748-76.245-4.808S797.244,386.387,797.244,386.387Z" transform="translate(-309.087 -156.972)" fill="#e6e7e8"/>
  <path id="Path_42" data-name="Path 42" d="M801.9,391.588h-6.869s-7.556,5.5-6.869,11.677-7.556,59.76-7.556,66.629-2.748,8.93-2.748,13.051,1.374,6.869,0,8.93-4.121,14.425-3.434,19.233a38.738,38.738,0,0,1,0,9.616h12.364s12.364-41.9,15.112-43.961a10.565,10.565,0,0,0,4.121-7.556c0-2.061-1.374-2.061,2.061-4.808s1.374-15.112,1.374-15.112l4.808-12.364Z" transform="translate(-306.87 -162.173)" fill="#e6e7e8"/>
  <circle id="Ellipse_3" data-name="Ellipse 3" cx="19.89" cy="19.89" r="19.89" transform="translate(489.244 160.325)" fill="#9e616a"/>
  <path id="Path_43" data-name="Path 43" d="M806.579,359.054l-1.866-8.178a21.019,21.019,0,0,1,2.9-16.071,14.61,14.61,0,0,0,.449-14.907,11.465,11.465,0,0,0-9.989-6.292h-.5v-.5c0-7.132,5.558-12.166,10.726-12.455.187-1.484,1.239-2.815,3.071-3.871,4.375-2.523,12.835-3.07,19.227.292a6.06,6.06,0,0,1,3.741-4.958,5.977,5.977,0,0,1,3.267-.188,7.4,7.4,0,0,1,2.078-4.767c1.764-1.71,4.6-2.36,7.768-1.787,4.357.791,8.65,3.566,12.091,7.815,3.05,3.768,5.168,8.208,7.216,12.5,2.014,4.223,4.1,8.59,7.115,12.287,3.307,4.05,7.4,6.675,11.537,7.39,4.82.834,9.768-1.15,12.032-4.825l.45-.729.409.753c2.543,4.674,1.5,11.1-2.474,15.27a18.281,18.281,0,0,1-14.968,5.1c-4.914-.467-9.87-2.556-14.732-6.206-4.829-3.626-7.815-7.634-8.876-11.913a32.257,32.257,0,0,1-.638-4.016c-.329-2.829-.639-5.5-2.38-7.47-1.564-1.769-3.985-2.535-6.132-3.114l-.422-.113a5.5,5.5,0,0,1-2.346,4,3.973,3.973,0,0,1-1.282.494c2.489,10.018,1.466,17.688-3.044,22.8-7.613,8.633-22.242,6.857-22.861,6.778l-.412-.053-.021-.415a23.089,23.089,0,0,0-.407-3.314c-2.1,5.048-9.144,18.4-10.087,19.745Z" transform="translate(-311.376 -141.564)" fill="#2f2e41"/>
</svg>
